<svg xmlns:dc="http://purl.org/dc/elements/1.1/" xmlns:cc="http://creativecommons.org/ns#" xmlns:rdf="http://www.w3.org/1999/02/22-rdf-syntax-ns#" xmlns:svg="http://www.w3.org/2000/svg" xmlns="http://www.w3.org/2000/svg" id="svg709418" viewBox="0 0 1024 768" height="768px" width="1024px" version="1.1">
  <metadata id="metadata709424">
    <rdf:rdf>
      <cc:work rdf:about="">
        <dc:format>image/svg+xml</dc:format>
        <dc:type rdf:resource="http://purl.org/dc/dcmitype/StillImage"></dc:type>
      </cc:work>
    </rdf:rdf>
  </metadata>
  <defs id="defs709422"></defs>
  <g id="logo-group">
    <g id="title" style="font-style:normal;font-weight:800;font-size:72px;line-height:1;font-family:MontserratExtraBoldAlt1;font-variant-ligatures:none;text-align:center;text-anchor:middle" aria-label="Magma Mars Exploration">
      <path id="path709426" style="font-style: normal; font-weight: 800; font-size: 72px; line-height: 1; font-family: MontserratExtraBoldAlt1; font-variant-ligatures: none; text-align: center; text-anchor: middle; fill: rgb(100, 121, 144);" d="m 97.800875,88.824 -13.032,23.328 0.072,7.848 h 13.104 z M 39.336875,120 h 13.176 v -6.984 l -13.176,-23.544 z m 46.728,-50.4 -17.28,29.088 -17.712,-29.088 h -11.736 l 13.176,24.408 12.888,21.024 h 6.336 l 12.96,-21.744 12.744,-23.688 z" transform="translate(0 239.362) translate(245.12755625 64.44800000000001) scale(1.1) translate(-39.336875 -69.6)"></path>
      <path id="path709428" style="font-style: normal; font-weight: 800; font-size: 72px; line-height: 1; font-family: MontserratExtraBoldAlt1; font-variant-ligatures: none; text-align: center; text-anchor: middle; fill: rgb(100, 121, 144);" d="m 138.77787,84.792 c -3.456,-2.952 -8.352,-4.464 -14.83199,-4.464 -3.16801,0 -6.264,0.432 -9.36,1.224 -3.09601,0.792 -5.688,1.872 -7.848,3.312 l 4.608,9.288 c 1.296,-1.008 2.952,-1.872 4.89599,-2.448 1.87201,-0.576 3.816,-0.936 5.68801,-0.936 5.256,0 7.99199,2.088 8.27999,6.192 h -7.77599 c -5.904,0 -10.296,1.08 -13.104,3.096 -2.88,2.016 -4.24801,4.896 -4.24801,8.568 0,2.304 0.50401,4.392 1.65601,6.192 1.152,1.8 2.80799,3.24 5.03999,4.248 2.16001,1.08 4.82401,1.584 7.84801,1.584 5.68799,0 9.50399,-1.872 11.51999,-5.688 V 120 h 12.74401 V 98.328 c 0,-6.048 -1.72801,-10.584 -5.11201,-13.536 z m -11.16,26.064 c -1.22399,0.792 -2.59199,1.152 -4.17599,1.152 -1.584,0 -2.88,-0.36 -3.74401,-1.08 -0.93599,-0.72 -1.36799,-1.656 -1.36799,-2.88 0,-2.592 1.944,-3.96 5.976,-3.96 h 5.90399 v 3.384 c -0.576,1.512 -1.43999,2.664 -2.592,3.384 z" transform="translate(0 239.362) translate(317.44705074999996 76.24880000000002) scale(1.1) translate(-105.08187 -80.328)"></path>
      <path id="path709430" style="font-style: normal; font-weight: 800; font-size: 72px; line-height: 1; font-family: MontserratExtraBoldAlt1; font-variant-ligatures: none; text-align: center; text-anchor: middle; fill: rgb(100, 121, 144);" d="m 195.13362,80.976 h -13.03199 v 4.752 c -2.59201,-3.6 -6.69601,-5.4 -12.24001,-5.4 -3.456,0 -6.696,0.792 -9.576,2.376 -2.952,1.584 -5.256,3.744 -6.984,6.624 -1.728,2.88 -2.592,6.12 -2.592,9.792 0,3.744 0.864,7.056 2.592,9.936 1.728,2.88 4.032,5.04 6.984,6.624 2.88,1.584 6.12,2.304 9.576,2.304 5.04,0 8.928,-1.512 11.592,-4.608 v 1.296 c 0,3.168 -0.864,5.472 -2.52,7.056 -1.728,1.584 -4.31999,2.376 -7.92,2.376 -2.37599,0 -4.752,-0.36 -7.2,-1.08 -2.448,-0.72 -4.392,-1.8 -5.976,-3.096 l -4.96799,9.576 c 2.30399,1.728 5.18399,2.952 8.56799,3.816 3.312,0.864 6.912,1.296 10.8,1.296 7.344,0 13.032,-1.8 16.992,-5.4 3.888,-3.6 5.904,-9.072 5.904,-16.344 z m -15.98399,23.904 c -1.58401,1.512 -3.60001,2.232 -6.048,2.232 -2.44801,0 -4.53601,-0.72 -6.12001,-2.232 -1.656,-1.44 -2.448,-3.384 -2.448,-5.76 0,-2.304 0.792,-4.248 2.376,-5.688 1.584,-1.44 3.672,-2.232 6.19201,-2.232 2.44799,0 4.536,0.792 6.11999,2.232 1.584,1.44 2.376,3.384 2.376,5.688 0,2.376 -0.864,4.32 -2.44799,5.76 z" transform="translate(0 239.362) translate(367.63757574999994 76.24880000000002) scale(1.1) translate(-150.70962 -80.328)"></path>
      <path id="path709432" style="font-style: normal; font-weight: 800; font-size: 72px; line-height: 1; font-family: MontserratExtraBoldAlt1; font-variant-ligatures: none; text-align: center; text-anchor: middle; fill: rgb(100, 121, 144);" d="m 266.20325,84.648 c -2.88,-2.88 -6.696,-4.32 -11.448,-4.32 -2.808,0 -5.4,0.576 -7.704,1.584 -2.376,1.08 -4.32,2.592 -5.832,4.536 -1.368,-2.016 -3.096,-3.6 -5.256,-4.608 -2.16,-1.008 -4.608,-1.512 -7.344,-1.512 -2.376,0 -4.536,0.432 -6.552,1.224 -2.016,0.792 -3.672,1.944 -5.112,3.528 v -4.104 h -13.032 V 120 h 13.68 v -19.368 c 0,-2.88 0.576,-5.112 1.872,-6.552 1.224,-1.44 2.88,-2.16 5.04,-2.16 3.888,0 5.904,2.664 5.904,7.992 V 120 h 13.68 v -19.368 c 0,-2.88 0.576,-5.112 1.872,-6.552 1.224,-1.44 2.88,-2.16 4.968,-2.16 1.872,0 3.312,0.648 4.32,1.944 1.008,1.296 1.584,3.312 1.584,6.048 V 120 h 13.68 V 97.68 c 0,-5.76 -1.44,-10.152 -4.32,-13.032 z" transform="translate(0 239.362) translate(426.1725687499999 76.24880000000002) scale(1.1) translate(-203.92325 -80.328)"></path>
      <path id="path709434" style="font-style: normal; font-weight: 800; font-size: 72px; line-height: 1; font-family: MontserratExtraBoldAlt1; font-variant-ligatures: none; text-align: center; text-anchor: middle; fill: rgb(100, 121, 144);" d="m 310.62162,84.792 c -3.456,-2.952 -8.35199,-4.464 -14.832,-4.464 -3.168,0 -6.264,0.432 -9.36,1.224 -3.096,0.792 -5.688,1.872 -7.848,3.312 l 4.608,9.288 c 1.29601,-1.008 2.952,-1.872 4.896,-2.448 1.872,-0.576 3.81601,-0.936 5.688,-0.936 5.256,0 7.992,2.088 8.28,6.192 h -7.776 c -5.904,0 -10.296,1.08 -13.10399,3.096 -2.88,2.016 -4.248,4.896 -4.248,8.568 0,2.304 0.50399,4.392 1.65599,6.192 1.15201,1.8 2.80801,3.24 5.04,4.248 2.16001,1.08 4.824,1.584 7.848,1.584 5.688,0 9.504,-1.872 11.52,-5.688 V 120 h 12.74401 V 98.328 c 0,-6.048 -1.72801,-10.584 -5.11201,-13.536 z m -11.15999,26.064 c -1.22401,0.792 -2.59201,1.152 -4.17601,1.152 -1.584,0 -2.88,-0.36 -3.744,-1.08 -0.936,-0.72 -1.36799,-1.656 -1.36799,-2.88 0,-2.592 1.94399,-3.96 5.976,-3.96 h 5.90399 v 3.384 c -0.576,1.512 -1.43999,2.664 -2.59199,3.384 z" transform="translate(0 239.362) translate(506.47518675 76.24880000000002) scale(1.1) translate(-276.92563 -80.328)"></path>
      <path id="path709436" style="font-style: normal; font-weight: 800; font-size: 72px; line-height: 1; font-family: MontserratExtraBoldAlt1; font-variant-ligatures: none; text-align: center; text-anchor: middle; fill: rgb(100, 121, 144);" d="m 404.504,88.824 -13.032,23.328 0.072,7.848 h 13.104 z M 346.04,120 h 13.176 v -6.984 L 346.04,89.472 Z M 392.768,69.6 375.488,98.688 357.776,69.6 H 346.04 l 13.176,24.408 12.888,21.024 h 6.336 L 391.4,93.288 404.144,69.6 Z" transform="translate(0 239.362) translate(582.5009937499999 64.44800000000001) scale(1.1) translate(-346.04 -69.6)"></path>
      <path id="path709438" style="font-style: normal; font-weight: 800; font-size: 72px; line-height: 1; font-family: MontserratExtraBoldAlt1; font-variant-ligatures: none; text-align: center; text-anchor: middle; fill: rgb(151, 165, 180);" d="m 445.481,84.792 c -3.456,-2.952 -8.352,-4.464 -14.832,-4.464 -3.168,0 -6.264,0.432 -9.36,1.224 -3.096,0.792 -5.688,1.872 -7.848,3.312 l 4.608,9.288 c 1.296,-1.008 2.952,-1.872 4.896,-2.448 1.872,-0.576 3.816,-0.936 5.688,-0.936 5.256,0 7.992,2.088 8.28,6.192 h -7.776 c -5.904,0 -10.296,1.08 -13.104,3.096 -2.88,2.016 -4.248,4.896 -4.248,8.568 0,2.304 0.504,4.392 1.656,6.192 1.152,1.8 2.808,3.24 5.04,4.248 2.16,1.08 4.824,1.584 7.848,1.584 5.688,0 9.504,-1.872 11.52,-5.688 V 120 h 12.744 V 98.328 c 0,-6.048 -1.728,-10.584 -5.112,-13.536 z m -11.16,26.064 c -1.224,0.792 -2.592,1.152 -4.176,1.152 -1.584,0 -2.88,-0.36 -3.744,-1.08 -0.936,-0.72 -1.368,-1.656 -1.368,-2.88 0,-2.592 1.944,-3.96 5.976,-3.96 h 5.904 v 3.384 c -0.576,1.512 -1.44,2.664 -2.592,3.384 z" transform="translate(0 239.362) translate(654.8204937499999 76.24880000000002) scale(1.1) translate(-411.785 -80.328)"></path>
      <path id="path709440" style="font-style: normal; font-weight: 800; font-size: 72px; line-height: 1; font-family: MontserratExtraBoldAlt1; font-variant-ligatures: none; text-align: center; text-anchor: middle; fill: rgb(151, 165, 180);" d="m 477.73025,81.696 c -2.232,0.864 -4.032,2.232 -5.4,3.96 v -4.68 h -13.032 V 120 h 13.68 v -17.928 c 0,-3.24 0.792,-5.688 2.448,-7.272 1.656,-1.584 3.96,-2.376 6.912,-2.376 0.792,0 1.8,0.072 3.096,0.216 V 80.328 c -2.88,0 -5.472,0.504 -7.704,1.368 z" transform="translate(0 239.362) translate(707.0850687499999 76.24880000000002) scale(1.1) translate(-459.29825 -80.328)"></path>
      <path id="path709442" style="font-style: normal; font-weight: 800; font-size: 72px; line-height: 1; font-family: MontserratExtraBoldAlt1; font-variant-ligatures: none; text-align: center; text-anchor: middle; fill: rgb(151, 165, 180);" d="m 495.6155,119.568 c 3.168,0.72 6.336,1.08 9.648,1.08 4.032,0 7.56,-0.504 10.44,-1.656 2.88,-1.08 5.112,-2.592 6.624,-4.536 1.44,-1.944 2.232,-4.176 2.232,-6.624 0,-2.952 -0.792,-5.256 -2.376,-6.912 -1.584,-1.656 -3.384,-2.808 -5.472,-3.456 -2.16,-0.576 -4.824,-1.152 -7.992,-1.656 -2.592,-0.36 -4.392,-0.72 -5.472,-1.08 -1.152,-0.36 -1.656,-1.008 -1.656,-1.944 0,-0.792 0.504,-1.44 1.512,-1.944 1.008,-0.504 2.592,-0.792 4.752,-0.792 4.032,0 7.776,1.008 11.232,2.88 l 4.104,-9.288 c -1.872,-1.008 -4.248,-1.872 -6.984,-2.448 -2.808,-0.576 -5.616,-0.864 -8.424,-0.864 -4.032,0 -7.416,0.576 -10.296,1.728 -2.88,1.152 -5.04,2.664 -6.48,4.608 -1.512,1.944 -2.232,4.176 -2.232,6.624 0,3.024 0.792,5.4 2.376,7.056 1.584,1.728 3.456,2.88 5.616,3.456 2.16,0.648 4.824,1.152 7.992,1.512 2.448,0.36 4.176,0.72 5.328,1.08 1.152,0.36 1.728,0.936 1.728,1.8 0,0.864 -0.504,1.584 -1.44,2.016 -0.936,0.432 -2.52,0.648 -4.68,0.648 -2.448,0 -4.824,-0.288 -7.272,-0.936 -2.448,-0.648 -4.608,-1.512 -6.336,-2.664 l -4.104,9.36 c 1.872,1.224 4.464,2.232 7.632,2.952 z" transform="translate(0 239.362) translate(738.6388437499999 76.24880000000002) scale(1.1) translate(-487.9835 -80.328)"></path>
      <path id="path709444" style="font-style: normal; font-weight: 800; font-size: 72px; line-height: 1; font-family: MontserratExtraBoldAlt1; font-variant-ligatures: none; text-align: center; text-anchor: middle; fill: rgb(151, 165, 180);" d="m 592.01562,69.6 h -39.96 v 11.016 h 39.96 z m 0,19.512 h -39.96 v 10.656 h 39.96 z m -39.96,19.872 V 120 h 39.96 v -11.016 z" transform="translate(0 239.362) translate(273.56344449999983 154.0232) scale(1.1) translate(-552.05562 -69.6)"></path>
      <path id="path709446" style="font-style: normal; font-weight: 800; font-size: 72px; line-height: 1; font-family: MontserratExtraBoldAlt1; font-variant-ligatures: none; text-align: center; text-anchor: middle; fill: rgb(151, 165, 180);" d="m 624.26937,120 h 15.624 l -14.904,-20.016 14.4,-19.008 h -14.472 l -7.2,9.864 -6.91199,-9.864 h -15.40801 l 14.4,19.512 -14.832,19.512 h 14.832 l 7.48801,-10.224 z" transform="translate(0 239.362) translate(320.76416949999987 166.5368) scale(1.1) translate(-594.96537 -80.976)"></path>
      <path id="path709448" style="font-style: normal; font-weight: 800; font-size: 72px; line-height: 1; font-family: MontserratExtraBoldAlt1; font-variant-ligatures: none; text-align: center; text-anchor: middle; fill: rgb(195, 203, 210);" d="m 678.2795,82.848 c -2.88,-1.656 -6.12,-2.52 -9.648,-2.52 -5.184,0 -9,1.512 -11.52,4.536 v -3.888 h -13.032 v 52.992 h 13.68 v -17.424 c 2.664,2.736 6.264,4.104 10.872,4.104 3.528,0 6.768,-0.792 9.648,-2.448 2.88,-1.656 5.184,-4.032 6.912,-7.056 1.728,-3.024 2.592,-6.624 2.592,-10.656 0,-4.032 -0.864,-7.56 -2.592,-10.584 -1.728,-3.024 -4.032,-5.4 -6.912,-7.056 z m -6.624,24.48 c -1.584,1.656 -3.528,2.448 -5.904,2.448 -2.448,0 -4.392,-0.792 -5.904,-2.448 -1.584,-1.656 -2.304,-3.96 -2.304,-6.84 0,-2.88 0.72,-5.112 2.304,-6.768 1.512,-1.656 3.456,-2.52 5.904,-2.52 2.376,0 4.32,0.864 5.904,2.52 1.512,1.656 2.304,3.888 2.304,6.768 0,2.88 -0.792,5.184 -2.304,6.84 z" transform="translate(0 239.362) translate(374.7897124999999 165.824) scale(1.1) translate(-644.0795 -80.328)"></path>
      <path id="path709450" style="font-style: normal; font-weight: 800; font-size: 72px; line-height: 1; font-family: MontserratExtraBoldAlt1; font-variant-ligatures: none; text-align: center; text-anchor: middle; fill: rgb(195, 203, 210);" d="M 694.142,66.576 V 120 h 13.68 V 66.576 Z" transform="translate(0 239.362) translate(429.8584625 150.6968) scale(1.1) translate(-694.142 -66.576)"></path>
      <path id="path709452" style="font-style: normal; font-weight: 800; font-size: 72px; line-height: 1; font-family: MontserratExtraBoldAlt1; font-variant-ligatures: none; text-align: center; text-anchor: middle; fill: rgb(195, 203, 210);" d="m 724.922,118.056 c 3.312,1.728 7.128,2.592 11.304,2.592 4.176,0 7.992,-0.864 11.376,-2.592 3.312,-1.728 5.976,-4.104 7.848,-7.2 1.872,-3.024 2.808,-6.552 2.808,-10.44 0,-3.888 -0.936,-7.344 -2.808,-10.368 -1.872,-3.024 -4.536,-5.4 -7.848,-7.128 -3.384,-1.728 -7.2,-2.592 -11.376,-2.592 -4.248,0 -8.064,0.864 -11.376,2.592 -3.312,1.728 -5.976,4.104 -7.848,7.128 -1.872,3.096 -2.808,6.552 -2.808,10.368 0,3.888 0.936,7.416 2.808,10.44 1.872,3.096 4.536,5.472 7.92,7.2 z m 17.208,-10.728 c -1.584,1.656 -3.528,2.448 -5.904,2.448 -2.448,0 -4.392,-0.792 -5.904,-2.448 -1.584,-1.656 -2.304,-3.96 -2.304,-6.912 0,-2.88 0.72,-5.112 2.304,-6.768 1.512,-1.584 3.456,-2.448 5.904,-2.448 2.376,0 4.32,0.864 5.904,2.448 1.512,1.656 2.304,3.888 2.304,6.768 0,2.952 -0.792,5.256 -2.304,6.912 z" transform="translate(0 239.362) translate(451.91566249999994 165.824) scale(1.1) translate(-714.194 -80.328)"></path>
      <path id="path709454" style="font-style: normal; font-weight: 800; font-size: 72px; line-height: 1; font-family: MontserratExtraBoldAlt1; font-variant-ligatures: none; text-align: center; text-anchor: middle; fill: rgb(195, 203, 210);" d="m 783.02712,81.696 c -2.232,0.864 -4.03199,2.232 -5.4,3.96 v -4.68 H 764.59513 V 120 h 13.67999 v -17.928 c 0,-3.24 0.79201,-5.688 2.448,-7.272 1.65601,-1.584 3.96001,-2.376 6.91201,-2.376 0.792,0 1.79999,0.072 3.096,0.216 V 80.328 c -2.88,0 -5.472,0.504 -7.70401,1.368 z" transform="translate(0 239.362) translate(507.35690550000004 165.824) scale(1.1) translate(-764.59513 -80.328)"></path>
      <path id="path709456" style="font-style: normal; font-weight: 800; font-size: 72px; line-height: 1; font-family: MontserratExtraBoldAlt1; font-variant-ligatures: none; text-align: center; text-anchor: middle; fill: rgb(195, 203, 210);" d="m 827.55912,84.792 c -3.456,-2.952 -8.35199,-4.464 -14.832,-4.464 -3.168,0 -6.264,0.432 -9.36,1.224 -3.096,0.792 -5.688,1.872 -7.84799,3.312 l 4.60799,9.288 c 1.29601,-1.008 2.952,-1.872 4.89601,-2.448 1.87199,-0.576 3.81599,-0.936 5.688,-0.936 5.25599,0 7.99199,2.088 8.27999,6.192 h -7.776 c -5.904,0 -10.296,1.08 -13.10399,3.096 -2.88,2.016 -4.24801,4.896 -4.24801,8.568 0,2.304 0.504,4.392 1.65601,6.192 1.15199,1.8 2.808,3.24 5.03999,4.248 2.16,1.08 4.824,1.584 7.848,1.584 5.68801,0 9.504,-1.872 11.52001,-5.688 V 120 h 12.74399 V 98.328 c 0,-6.048 -1.728,-10.584 -5.112,-13.536 z m -11.15999,26.064 c -1.22401,0.792 -2.592,1.152 -4.17601,1.152 -1.58399,0 -2.88,-0.36 -3.744,-1.08 -0.93599,-0.72 -1.36799,-1.656 -1.36799,-2.88 0,-2.592 1.94399,-3.96 5.976,-3.96 h 5.90399 v 3.384 c -0.576,1.512 -1.44,2.664 -2.59199,3.384 z" transform="translate(0 239.362) translate(539.5516945 165.824) scale(1.1) translate(-793.86312 -80.328)"></path>
      <path id="path709458" style="font-style: normal; font-weight: 800; font-size: 72px; line-height: 1; font-family: MontserratExtraBoldAlt1; font-variant-ligatures: none; text-align: center; text-anchor: middle; fill: rgb(195, 203, 210);" d="m 868.30438,118.416 -3.384,-9.576 c -1.22401,0.864 -2.592,1.224 -4.17601,1.224 -1.296,0 -2.30399,-0.36 -3.024,-1.152 -0.72,-0.792 -1.08,-1.872 -1.08,-3.312 V 92.64 h 8.92801 V 82.416 h -8.92801 V 72.264 h -13.68 v 10.152 h -5.688 V 92.64 h 5.688 v 13.104 c 0,4.968 1.36801,8.712 4.10401,11.16 2.736,2.52 6.62399,3.744 11.736,3.744 1.87199,0 3.59999,-0.144 5.25599,-0.576 1.656,-0.36 3.096,-0.936 4.24801,-1.656 z" transform="translate(0 239.362) translate(587.3018695000001 156.95360000000002) scale(1.1) translate(-837.27237 -72.264)"></path>
      <path id="path709460" style="font-style: normal; font-weight: 800; font-size: 72px; line-height: 1; font-family: MontserratExtraBoldAlt1; font-variant-ligatures: none; text-align: center; text-anchor: middle; fill: rgb(246, 247, 246);" d="M 873.5795,80.976 V 120 h 13.68 V 80.976 Z m 0.792,-6.408 c 1.512,1.44 3.528,2.088 6.048,2.088 2.448,0 4.464,-0.648 6.048,-2.088 1.512,-1.44 2.304,-3.24 2.304,-5.4 0,-2.016 -0.792,-3.744 -2.304,-5.04 -1.584,-1.296 -3.6,-2.016 -6.048,-2.016 -2.52,0 -4.536,0.72 -6.048,2.088 -1.584,1.44 -2.304,3.168 -2.304,5.184 0,2.088 0.72,3.816 2.304,5.184 z" transform="translate(0 239.362) translate(625.5765125 145.78640000000001) scale(1.1) translate(-872.0675 -62.112)"></path>
      <path id="path709462" style="font-style: normal; font-weight: 800; font-size: 72px; line-height: 1; font-family: MontserratExtraBoldAlt1; font-variant-ligatures: none; text-align: center; text-anchor: middle; fill: rgb(246, 247, 246);" d="m 904.3595,118.056 c 3.312,1.728 7.128,2.592 11.304,2.592 4.176,0 7.992,-0.864 11.376,-2.592 3.312,-1.728 5.976,-4.104 7.848,-7.2 1.872,-3.024 2.808,-6.552 2.808,-10.44 0,-3.888 -0.936,-7.344 -2.808,-10.368 -1.872,-3.024 -4.536,-5.4 -7.848,-7.128 -3.384,-1.728 -7.2,-2.592 -11.376,-2.592 -4.248,0 -8.064,0.864 -11.376,2.592 -3.312,1.728 -5.976,4.104 -7.848,7.128 -1.872,3.096 -2.808,6.552 -2.808,10.368 0,3.888 0.936,7.416 2.808,10.44 1.872,3.096 4.536,5.472 7.92,7.2 z m 17.208,-10.728 c -1.584,1.656 -3.528,2.448 -5.904,2.448 -2.448,0 -4.392,-0.792 -5.904,-2.448 -1.584,-1.656 -2.304,-3.96 -2.304,-6.912 0,-2.88 0.72,-5.112 2.304,-6.768 1.512,-1.584 3.456,-2.448 5.904,-2.448 2.376,0 4.32,0.864 5.904,2.448 1.512,1.656 2.304,3.888 2.304,6.768 0,2.952 -0.792,5.256 -2.304,6.912 z" transform="translate(0 239.362) translate(649.2969125000001 165.824) scale(1.1) translate(-893.6315 -80.328)"></path>
      <path id="path709464" style="font-style: normal; font-weight: 800; font-size: 72px; line-height: 1; font-family: MontserratExtraBoldAlt1; font-variant-ligatures: none; text-align: center; text-anchor: middle; fill: rgb(246, 247, 246);" d="m 981.11262,84.648 c -2.952,-2.88 -6.84,-4.32 -11.664,-4.32 -2.52,0 -4.82399,0.432 -6.912,1.296 -2.16,0.864 -3.95999,2.016 -5.472,3.6 V 80.976 H 944.03263 V 120 h 13.67999 v -18.864 c 0,-3.024 0.64801,-5.328 2.088,-6.912 1.44001,-1.512 3.312,-2.304 5.688,-2.304 4.248,0 6.408,2.664 6.408,7.992 V 120 h 13.68001 V 97.68 c 0,-5.76 -1.51201,-10.152 -4.46401,-13.032 z" transform="translate(0 239.362) translate(704.7381555000003 165.824) scale(1.1) translate(-944.03263 -80.328)"></path>
    </g>
  </g>
</svg>