<svg xmlns:dc="http://purl.org/dc/elements/1.1/" xmlns:cc="http://creativecommons.org/ns#" xmlns:rdf="http://www.w3.org/1999/02/22-rdf-syntax-ns#" xmlns:svg="http://www.w3.org/2000/svg" xmlns="http://www.w3.org/2000/svg" id="svg258185" viewBox="0 0 1024 768" height="768px" width="1024px" version="1.1">
  <metadata id="metadata258191">
    <rdf:rdf>
      <cc:work rdf:about="">
        <dc:format>image/svg+xml</dc:format>
        <dc:type rdf:resource="http://purl.org/dc/dcmitype/StillImage"></dc:type>
      </cc:work>
    </rdf:rdf>
  </metadata>
  <defs id="defs258189"></defs>
  <g id="logo-group">
    <g id="title" style="font-style:normal;font-weight:800;font-size:72px;line-height:1;font-family:MontserratExtraBoldAlt1;font-variant-ligatures:none;text-align:center;text-anchor:middle" aria-label="REDMARS">
      <path id="path258193" style="font-style: normal; font-weight: 800; font-size: 72px; line-height: 1; font-family: MontserratExtraBoldAlt1; font-variant-ligatures: none; text-align: center; text-anchor: middle; fill: rgb(22, 29, 34);" d="m 359.52987,104.16 c 3.096,-1.512 5.544,-3.6 7.272,-6.336 1.728,-2.736 2.592,-5.904 2.592,-9.576 0,-3.744 -0.936,-7.056 -2.736,-9.864 -1.87199,-2.808 -4.464,-4.968 -7.776,-6.48 -3.38399,-1.512 -7.344,-2.304 -11.88,-2.304 h -23.03999 v 11.232 h 22.17599 c 2.88,0 5.112,0.648 6.62401,1.944 1.43999,1.296 2.23199,3.168 2.23199,5.472 0,2.376 -0.792,4.176 -2.23199,5.472 -1.51201,1.296 -3.74401,1.872 -6.62401,1.872 H 323.96188 V 120 h 14.25599 v -13.392 h 7.776 l 9.144,13.392 h 15.26401 z" transform="translate(0 267.16342857142854) translate(240.82759285714292 80.83657142857142) scale(1.4285714285714286) translate(-323.96188 -69.6)"></path>
      <path id="path258195" style="font-style: normal; font-weight: 800; font-size: 72px; line-height: 1; font-family: MontserratExtraBoldAlt1; font-variant-ligatures: none; text-align: center; text-anchor: middle; fill: rgb(22, 29, 34);" d="m 417.21875,69.6 h -39.96 v 11.016 h 39.96 z m 0,19.512 h -39.96 v 10.656 h 39.96 z m -39.96,19.872 V 120 h 39.96 v -11.016 z" transform="translate(0 267.16342857142854) translate(316.96597857142865 80.83657142857142) scale(1.4285714285714286) translate(-377.25875 -69.6)"></path>
      <path id="path258197" style="font-style: normal; font-weight: 800; font-size: 72px; line-height: 1; font-family: MontserratExtraBoldAlt1; font-variant-ligatures: none; text-align: center; text-anchor: middle; fill: rgb(22, 29, 34);" d="m 474.08975,81.48 c -2.376,-3.744 -5.688,-6.696 -9.936,-8.784 -4.32,-2.016 -9.216,-3.096 -14.688,-3.096 h -23.832 v 11.376 h 23.256 c 4.32,0 7.776,1.224 10.368,3.672 2.592,2.52 3.96,5.904 3.96,10.152 0,4.32 -1.368,7.704 -3.96,10.152 -2.592,2.448 -6.048,3.672 -10.368,3.672 h -9 V 95.232 h -14.256 V 120 h 23.832 c 5.472,0 10.368,-1.008 14.688,-3.096 4.248,-2.016 7.56,-4.968 9.936,-8.784 2.304,-3.744 3.528,-8.208 3.528,-13.32 0,-5.04 -1.224,-9.504 -3.528,-13.32 z" transform="translate(0 267.16342857142854) translate(386.07312142857154 80.83657142857142) scale(1.4285714285714286) translate(-425.63375 -69.6)"></path>
      <path id="path258199" style="font-style: normal; font-weight: 800; font-size: 72px; line-height: 1; font-family: MontserratExtraBoldAlt1; font-variant-ligatures: none; text-align: center; text-anchor: middle; fill: rgb(22, 29, 34);" d="m 543.58213,88.824 -13.03201,23.328 0.072,7.848 h 13.10401 z M 485.11813,120 h 13.17599 v -6.984 L 485.11813,89.472 Z m 46.728,-50.4 -17.28,29.088 L 496.85412,69.6 h -11.73599 l 13.17599,24.408 12.888,21.024 h 6.33601 l 12.95999,-21.744 12.744,-23.688 z" transform="translate(0 267.16342857142854) translate(471.05080714285725 80.83657142857142) scale(1.4285714285714286) translate(-485.11813 -69.6)"></path>
      <path id="path258201" style="font-style: normal; font-weight: 800; font-size: 72px; line-height: 1; font-family: MontserratExtraBoldAlt1; font-variant-ligatures: none; text-align: center; text-anchor: middle; fill: rgb(22, 29, 34);" d="m 583.91112,69.6 h -14.04 l -22.248,50.4 h 14.54401 l 3.95999,-9.792 4.17601,-10.512 6.48,-16.128 6.47999,16.128 4.176,10.512 3.96001,9.792 h 14.832 z" transform="translate(0 267.16342857142854) translate(560.34365 80.83657142857142) scale(1.4285714285714286) translate(-547.62312 -69.6)"></path>
      <path id="path258203" style="font-style: normal; font-weight: 800; font-size: 72px; line-height: 1; font-family: MontserratExtraBoldAlt1; font-variant-ligatures: none; text-align: center; text-anchor: middle; fill: rgb(22, 29, 34);" d="m 645.84237,104.16 c 3.096,-1.512 5.54401,-3.6 7.272,-6.336 1.728,-2.736 2.592,-5.904 2.592,-9.576 0,-3.744 -0.93599,-7.056 -2.736,-9.864 -1.87199,-2.808 -4.46399,-4.968 -7.77599,-6.48 -3.384,-1.512 -7.34401,-2.304 -11.88,-2.304 h -23.04001 v 11.232 h 22.176 c 2.88,0 5.112,0.648 6.62401,1.944 1.43999,1.296 2.23199,3.168 2.23199,5.472 0,2.376 -0.792,4.176 -2.23199,5.472 -1.51201,1.296 -3.74401,1.872 -6.62401,1.872 h -22.176 V 120 h 14.25601 v -13.392 h 7.77599 l 9.144,13.392 h 15.26401 z" transform="translate(0 267.16342857142854) translate(649.8454357142857 80.83657142857142) scale(1.4285714285714286) translate(-610.27437 -69.6)"></path>
      <path id="path258205" style="font-style: normal; font-weight: 800; font-size: 72px; line-height: 1; font-family: MontserratExtraBoldAlt1; font-variant-ligatures: none; text-align: center; text-anchor: middle; fill: rgb(22, 29, 34);" d="m 669.40325,119.496 c 3.816,1.008 7.776,1.512 11.88,1.512 4.752,0 8.856,-0.72 12.24,-2.16 3.312,-1.44 5.832,-3.456 7.56,-5.904 1.656,-2.448 2.52,-5.184 2.52,-8.208 0,-3.456 -0.936,-6.264 -2.808,-8.28 -1.872,-2.016 -4.032,-3.528 -6.552,-4.464 -2.52,-0.936 -5.688,-1.8 -9.504,-2.664 -3.456,-0.72 -5.904,-1.368 -7.416,-2.088 -1.584,-0.648 -2.304,-1.656 -2.304,-3.024 0,-1.296 0.648,-2.376 1.944,-3.24 1.296,-0.864 3.312,-1.296 6.192,-1.296 4.464,0 9.144,1.296 13.968,3.888 l 4.392,-10.584 c -2.448,-1.44 -5.328,-2.52 -8.496,-3.24 -3.24,-0.72 -6.48,-1.152 -9.792,-1.152 -4.896,0 -9,0.72 -12.312,2.16 -3.312,1.44 -5.832,3.456 -7.488,5.904 -1.728,2.448 -2.52,5.256 -2.52,8.28 0,3.528 0.864,6.336 2.736,8.352 1.8,2.088 3.96,3.6 6.552,4.536 2.52,0.936 5.688,1.8 9.504,2.592 3.456,0.792 5.904,1.512 7.488,2.232 1.584,0.72 2.376,1.728 2.376,3.168 0,2.736 -2.736,4.104 -8.208,4.104 -2.88,0 -5.832,-0.432 -8.784,-1.368 -3.024,-0.864 -5.616,-2.088 -7.848,-3.6 l -4.68,10.512 c 2.376,1.728 5.472,3.024 9.36,4.032 z" transform="translate(0 267.16342857142854) translate(720.9438357142857 79.39657142857145) scale(1.4285714285714286) translate(-660.04325 -68.592)"></path>
    </g>
  </g>
</svg>